<svg id="visual" viewBox="0 0 900 600" width="900" height="600" xmlns="http://www.w3.org/2000/svg" xmlns:xlink="http://www.w3.org/1999/xlink" version="1.1"><rect x="0" y="0" width="900" height="600" fill="#ffffff"></rect><g transform="translate(454.0510152860356 275.99481938637985)"><path d="M168.2 -181.3C211.7 -164 236.3 -105 248.5 -42.8C260.6 19.3 260.2 84.7 229.8 128.4C199.4 172 139 194.1 80.1 212C21.2 229.9 -36.3 243.7 -87.9 229.9C-139.6 216.2 -185.4 174.8 -218 123.4C-250.7 72 -270.1 10.5 -262.3 -48.4C-254.5 -107.3 -219.5 -163.6 -171.2 -180.1C-123 -196.6 -61.5 -173.3 0.4 -173.8C62.4 -174.3 124.7 -198.6 168.2 -181.3" fill="#BB004B"></path></g></svg>